<svg xmlns="http://www.w3.org/2000/svg" xmlns:xlink="http://www.w3.org/1999/xlink" viewBox="0,0,256,256" width="100px" height="100px" fill-rule="nonzero"><g fill="none" fill-rule="nonzero" stroke="none" stroke-width="1" stroke-linecap="butt" stroke-linejoin="miter" stroke-miterlimit="10" stroke-dasharray="" stroke-dashoffset="0" font-family="none" font-weight="none" font-size="none" text-anchor="none" style="mix-blend-mode: normal"><g transform="scale(2.56,2.56)"><path d="M78,13c-0.55228,0 -1,0.44772 -1,1c0,0.55228 0.44772,1 1,1c0.55228,0 1,-0.44772 1,-1c0,-0.55228 -0.44772,-1 -1,-1z" fill="#ff9100"></path><path d="M50,12c-20.98682,0 -38,17.01318 -38,38c0,20.98682 17.01318,38 38,38c20.98682,0 38,-17.01318 38,-38c0,-20.98682 -17.01318,-38 -38,-38z" fill="#ffa100"></path><path d="M84,12c-2.20914,0 -4,1.79086 -4,4c0,2.20914 1.79086,4 4,4c2.20914,0 4,-1.79086 4,-4c0,-2.20914 -1.79086,-4 -4,-4z" fill="#ff9100"></path><path d="M14,24c-1.10457,0 -2,0.89543 -2,2c0,1.10457 0.89543,2 2,2c1.10457,0 2,-0.89543 2,-2c0,-1.10457 -0.89543,-2 -2,-2z" fill="#ffe9a6"></path><path d="M78,75c-1.10457,0 -2,0.89543 -2,2c0,1.10457 0.89543,2 2,2c1.10457,0 2,-0.89543 2,-2c0,-1.10457 -0.89543,-2 -2,-2zM17,74c-2.20914,0 -4,1.79086 -4,4c0,2.20914 1.79086,4 4,4c2.20914,0 4,-1.79086 4,-4c0,-2.20914 -1.79086,-4 -4,-4z" fill="#ffe28b"></path><path d="M24,81c-1.10457,0 -2,0.89543 -2,2c0,1.10457 0.89543,2 2,2c1.10457,0 2,-0.89543 2,-2c0,-1.10457 -0.89543,-2 -2,-2z" fill="#ffe9a6"></path><path d="M66.483,76.034c-1.37132,0 -2.483,1.11168 -2.483,2.483c0,1.37132 1.11168,2.483 2.483,2.483c1.37132,0 2.483,-1.11168 2.483,-2.483c0,-1.37132 -1.11168,-2.483 -2.483,-2.483zM16,47c-0.55228,0 -1,0.44772 -1,1c0,0.55228 0.44772,1 1,1c0.55228,0 1,-0.44772 1,-1c0,-0.55228 -0.44772,-1 -1,-1z" fill="#ffec89"></path><path d="M86,30c-0.55228,0 -1,0.44772 -1,1c0,0.55228 0.44772,1 1,1c0.55228,0 1,-0.44772 1,-1c0,-0.55228 -0.44772,-1 -1,-1z" fill="#ff9100"></path><path d="M80,64c-1.10457,0 -2,0.89543 -2,2c0,1.10457 0.89543,2 2,2c1.10457,0 2,-0.89543 2,-2c0,-1.10457 -0.89543,-2 -2,-2z" fill="#ffec89"></path><g fill="#ffa100"><path d="M50,25.625c-13.393,0 -24.25,10.857 -24.25,24.25c0,13.393 10.857,24.25 24.25,24.25c13.393,0 24.25,-10.857 24.25,-24.25c0,-13.393 -10.857,-24.25 -24.25,-24.25zM50,69.875c-11.046,0 -20,-8.954 -20,-20c0,-11.046 8.954,-20 20,-20c11.046,0 20,8.954 20,20c0,11.046 -8.954,20 -20,20z"></path></g><g fill="#ffa100"><path d="M50,74.825c-13.757,0 -24.95,-11.192 -24.95,-24.95c0,-13.758 11.193,-24.95 24.95,-24.95c13.758,0 24.95,11.192 24.95,24.95c0,13.758 -11.192,24.95 -24.95,24.95zM50,26.325c-12.985,0 -23.55,10.564 -23.55,23.55c0,12.986 10.565,23.55 23.55,23.55c12.985,0 23.55,-10.564 23.55,-23.55c0,-12.986 -10.565,-23.55 -23.55,-23.55z"></path></g><g fill="#ffa100"><path d="M69.424,44.625c-0.214,0 -0.412,-0.138 -0.478,-0.353c-0.089,-0.288 -0.184,-0.572 -0.284,-0.854c-0.39,-1.089 -0.885,-2.155 -1.47,-3.169c-0.139,-0.239 -0.057,-0.545 0.183,-0.683c0.239,-0.14 0.543,-0.058 0.683,0.183c0.616,1.065 1.136,2.187 1.546,3.331c0.106,0.297 0.205,0.595 0.298,0.896c0.082,0.265 -0.066,0.544 -0.33,0.625c-0.05,0.017 -0.099,0.024 -0.148,0.024z"></path></g><g fill="#ffa100"><path d="M50,70.75c-11.511,0 -20.875,-9.337 -20.875,-20.813c0,-11.476 9.364,-20.812 20.875,-20.812c5.975,0 11.674,2.56 15.636,7.023c0.3,0.337 0.588,0.685 0.865,1.041c0.17,0.218 0.131,0.531 -0.088,0.701c-0.217,0.169 -0.532,0.131 -0.701,-0.088c-0.264,-0.339 -0.538,-0.669 -0.823,-0.99c-3.773,-4.25 -9.199,-6.688 -14.889,-6.688c-10.959,0 -19.875,8.888 -19.875,19.813c0,10.925 8.916,19.813 19.875,19.813c10.959,0 19.875,-8.888 19.875,-19.813c0,-0.992 -0.074,-1.992 -0.222,-2.973c-0.041,-0.273 0.146,-0.527 0.42,-0.568c0.271,-0.034 0.527,0.146 0.568,0.42c0.155,1.029 0.233,2.079 0.233,3.121c0.001,11.476 -9.363,20.813 -20.874,20.813z"></path></g></g></g></svg>