<svg xmlns="http://www.w3.org/2000/svg" width="33" height="15" fill="none" viewBox="0 0 33 15">
					<path fill="#FFFCE1" fill-rule="evenodd" d="M.834 1.646a1 1 0 0 1 1-1h30a1 1 0 1 1 0 2h-30a1 1 0 0 1-1-1Z" clip-rule="evenodd"></path>
					<path fill="#FFFCE1" fill-rule="evenodd" d="M.834 7.646a1 1 0 0 1 1-1h30a1 1 0 1 1 0 2h-30a1 1 0 0 1-1-1Z" clip-rule="evenodd"></path>
					<path fill="#FFFCE1" fill-rule="evenodd" d="M.834 13.646a1 1 0 0 1 1-1h30a1 1 0 1 1 0 2h-30a1 1 0 0 1-1-1Z" clip-rule="evenodd"></path>
				</svg>